<svg xmlns="http://www.w3.org/2000/svg" width="408" height="96" viewBox="0 0 408 96" fill="none"><path d="M254.88 28.1328C256.973 28.5057 261.21 31.0664 261.417 38.3262C261.623 45.5863 255.338 48.4627 252.17 48.9932H240.558L238.32 57.6377H229.59L234.751 28.1328H254.88ZM241.59 36.8633V41.207H249.848C250.507 41.164 251.809 40.6567 251.74 38.9707C251.671 37.2848 250.45 36.8633 249.848 36.8633H241.59Z" fill="#00CC7D"></path><path d="M399.825 28.3906C401.388 29.1648 404.676 31.9004 405.33 36.6484C405.984 41.3968 400.871 46.7997 398.233 48.9072H407.997L406.147 57.3369H389.244L385.89 48.9072L383.481 57.3369H374.836L379.008 28.3906H399.825ZM386.359 41.2539H393.327C393.958 41.0674 395.228 40.3508 395.263 38.9746C395.297 37.5984 394.158 37.0821 393.585 36.9961L386.359 36.7812V41.2539Z" fill="#00CC7D"></path><path d="M203.055 57.2505L207.743 28.4766H216.861L214.108 49.2935H224.431L223.054 57.2505H203.055Z" fill="white"></path><path d="M260.238 57.7202L264.917 27.957H274.017L271.27 49.4897H281.571L280.198 57.7202H260.238Z" fill="#00CA7B"></path><path d="M197.551 28.3906L200.905 57.3369H191.486L190.755 52.8633H180.948L178.282 57.3369H169.637L182.368 28.3906H197.551ZM187.832 36.9922L184.133 45.6377H189.939V36.9922H187.832Z" fill="white"></path><path d="M310.844 28.3906L314.198 57.3369H304.779L304.048 52.8633H294.241L291.575 57.3369H282.93L295.661 28.3906H310.844ZM301.125 36.9922L297.426 45.6377H303.232V36.9922H301.125Z" fill="#00CC7D"></path><path d="M368.129 28.3906L371.483 57.3369H362.064L361.333 52.8633H351.526L348.86 57.3369H340.215L352.946 28.3906H368.129ZM358.41 36.9922L354.711 45.6377H360.518V36.9922H358.41Z" fill="#00CC7D"></path><path d="M155.671 27.957H146.08C143.542 36.7741 143.4 50.2364 144.346 52.1288C145.203 53.8429 151.198 57.7202 156.66 57.6341C162.122 57.5481 164.359 55.2686 167.843 52.688C170.63 50.6235 173.477 35.3405 174.552 27.957H165.434L161.477 44.387C161.248 45.5339 159.963 47.9482 156.66 48.4299C153.357 48.9116 152.703 45.9353 152.789 44.387L155.671 27.957Z" fill="white"></path><path d="M122.112 27.9551C142.688 25.5464 141.524 41.0017 138.37 49.0303L141.553 49.5029L136.649 58.0195H116.607C108.005 58.0195 102.328 30.2711 122.112 27.9551ZM129.766 38.8359C127.487 36.2554 123.014 35.3948 118.972 39.6523C114.929 43.9102 119.358 48.083 120.863 48.9433L121.509 42.5771L129.079 46.5771C130.068 44.8565 131.59 40.9003 129.766 38.8359Z" fill="white"></path><path d="M339.18 48.9928L338.491 57.6379H332.513C326.706 57.6379 316.238 57.4488 316.513 44.3048C316.788 31.1609 326.893 28.2476 331.911 28.434H341.932V37.38H331.911C330.649 37.337 327.713 38.1714 326.061 41.8531C324.41 45.5348 327.896 48.1469 329.846 48.9928H339.18Z" fill="#00CC7D"></path><circle cx="27.8711" cy="83.0117" r="8.08594" fill="#00DD8A"></circle><circle cx="14.2805" cy="70.4524" r="7.31175" fill="#00DD8A"></circle><circle cx="6.96767" cy="53.7643" r="6.96767" fill="#00DD8A"></circle><circle cx="8.00183" cy="35.2714" r="5.93542" fill="#00DD8A"></circle><circle cx="16.0015" cy="19.439" r="5.59134" fill="#00DD8A"></circle><circle cx="30.7975" cy="8.25839" r="4.64511" fill="#00DD8A"></circle><circle cx="48.7736" cy="4.21501" r="4.21501" fill="#00DD8A"></circle><circle cx="67.0072" cy="8.42911" r="3.44082" fill="#00DD8A"></circle><circle cx="81.5458" cy="19.4403" r="2.9247" fill="#00DD8A"></circle><circle cx="89.3736" cy="35.8736" r="2.58062" fill="#00DD8A"></circle><circle cx="90.4082" cy="53.7636" r="1.97847" fill="#00DD8A"></circle><circle cx="83.5288" cy="71.0522" r="1.46235" fill="#00DD8A"></circle><circle cx="68.989" cy="83.0125" r="0.774185" fill="#00DD8A"></circle><path d="M53.6374 62.8843L52.5622 72.4325H41.3365V64.7767C41.3365 59.4778 49.5371 51.4722 53.6374 48.1318C56.175 46.0645 55.0138 38.6265 51.6589 36.7771C46.8315 34.1158 39.143 37.3649 35.143 40.2609L28.6484 31.5297C38.2139 22.6868 50.8561 23.5154 56.046 24.648C60.4187 26.6551 69.4566 32.3125 70.1104 41.9812C70.7641 51.6499 59.4008 59.3145 53.6374 62.8843Z" fill="#00DD8A"></path><g clip-path="url(#clip0_1_93)"><path d="M47.2203 80.5828C42.8758 80.5216 39.6493 84.2423 39.8658 88.2211C40.1214 92.9068 43.4715 95.2613 47.3903 95.2344C51.5073 95.2062 54.6311 92.2879 54.5455 87.8798C54.4611 83.4791 51.2247 80.6403 47.2203 80.5828Z" fill="#C8C8C8"></path><path d="M43.781 81.9428C40.7403 83.6857 38.8103 88.6258 42.0491 92.3637C42.4453 92.8211 43.0752 93.1403 43.5535 93.358C46.8192 94.8343 50.771 92.5642 52.2999 90.8336C53.5132 89.46 53.9597 88.5488 53.8153 86.6738C53.704 85.2158 53.0802 83.808 51.7874 82.7672C48.8642 80.409 45.7123 80.8347 43.781 81.9428Z" fill="white"></path><path d="M46.8471 84.9566C46.8361 84.9505 45.7047 84.3011 44.8265 83.9757C43.9116 83.6369 43.2365 83.4547 43.2291 83.4534L43.3551 82.9813C43.3832 82.9887 44.0584 83.1697 44.9965 83.5183C45.9138 83.8583 47.044 84.5065 47.0917 84.5347L46.8471 84.9566ZM48.8367 83.6802L49.5024 81.3047L49.9736 81.4367L49.308 83.8122L48.8367 83.6802ZM53.7821 86.7583C53.776 86.7558 53.1253 86.5088 52.3987 86.3118C51.852 86.1638 51.1475 86.0134 51.1402 86.0122L51.2417 85.5339C51.271 85.5401 51.9658 85.6881 52.5259 85.8397C53.2782 86.0428 53.9288 86.291 53.957 86.3008L53.7821 86.7583ZM49.933 91.5577C49.933 91.5504 49.8718 90.8043 49.725 90.0411C49.5795 89.2877 49.3018 88.5783 49.2994 88.5721L49.7544 88.3923C49.7666 88.4229 50.0516 89.1494 50.2057 89.9494C50.3574 90.7407 50.4185 91.488 50.421 91.5198L49.933 91.5577ZM52.3657 92.2378L52.0428 91.8696C52.0477 91.866 52.5174 91.4501 53.0971 90.6673C53.6329 89.9432 53.8799 89.3097 53.8824 89.3023L54.3386 89.4772C54.3276 89.5054 54.0646 90.1805 53.4898 90.9572C52.877 91.7865 52.3865 92.2194 52.3657 92.2378ZM43.4159 89.7378L46.2465 87.2112L46.5724 87.5762L43.7416 90.1027L43.4159 89.7378ZM40.9774 89.0614C40.97 89.0137 40.8086 87.8823 40.8086 86.8476C40.8086 85.8153 40.926 84.86 40.9321 84.8196L41.4177 84.8808C41.4165 84.8906 41.2991 85.8471 41.2991 86.8476C41.2991 87.8456 41.4617 88.9807 41.463 88.9917L40.9774 89.0614ZM48.1191 93.9905C48.0885 93.9868 47.3424 93.8926 46.052 93.5135C45.2301 93.2713 44.2908 92.7747 44.2504 92.7539L44.4804 92.3222C44.4901 92.3271 45.416 92.8175 46.1903 93.045C47.4378 93.412 48.1717 93.5049 48.179 93.5061L48.1191 93.9905Z" fill="#171717"></path><path d="M45.9228 84.0867C45.8849 84.1821 45.935 87.5885 46.0121 87.69C46.0892 87.7915 49.5138 88.9547 49.6667 88.9167C49.8196 88.8788 51.6469 86.0033 51.6469 85.8883C51.6469 85.7734 49.3989 83.0006 49.2839 82.9749C49.1689 82.9492 45.9742 83.9583 45.9228 84.0867ZM53.7495 84.505C53.7495 84.505 53.2455 86.1819 53.2455 86.3103C53.2455 86.4375 53.5525 87.1408 53.6932 88.0092C53.8339 88.8776 53.6296 90.1814 53.7189 90.2328C53.8082 90.2842 54.2509 90.2585 54.2509 90.2585C54.2509 90.2585 54.6778 88.9167 54.498 87.1922C54.3182 85.4664 53.7495 84.505 53.7495 84.505ZM50.1144 91.1783C50.0117 91.1881 47.3159 93.5034 47.3282 93.5682C47.3404 93.6318 48.3837 95.1693 48.3837 95.1693C48.3837 95.1693 49.6949 95.0653 50.896 94.4146C52.097 93.7639 52.5533 93.1854 52.5533 93.1854C52.5533 93.1854 52.7196 91.6394 52.656 91.6271C52.5936 91.6125 50.2428 91.166 50.1144 91.1783ZM41.1184 88.2905C41.0487 88.348 40.6451 89.236 40.5301 89.735C40.4152 90.2328 40.3516 90.7062 40.3516 90.7062C40.3516 90.7062 40.6586 91.5941 41.1184 92.2522C41.6884 93.0667 42.4296 93.6416 42.4296 93.6416C42.4296 93.6416 44.8489 92.9041 44.8624 92.8013C44.8758 92.6986 44.5811 91.8045 44.3768 91.0633C44.1725 90.3221 44.1346 89.4916 44.0576 89.4402C43.9805 89.3889 43.2014 89.1467 42.5886 88.9033C41.9758 88.6599 41.1955 88.2269 41.1184 88.2905ZM40.3601 85.2071C40.3601 85.2071 41.0292 85.7856 41.1319 85.7856C41.2346 85.7856 41.8829 84.927 42.5373 84.4059C43.4191 83.7026 43.8533 83.4727 43.8668 83.3834C43.879 83.2941 44.2631 81.1598 44.2631 81.1598C44.2631 81.1598 42.8443 81.6968 41.8095 82.8844C40.7748 84.072 40.3601 85.2071 40.3601 85.2071ZM47.596 80.5898C47.596 80.5898 48.4118 81.0094 48.709 81.2161C49.0063 81.4228 49.4441 81.8607 49.5738 81.8741C49.7022 81.8876 51.4769 81.8888 51.4769 81.8888C51.4769 81.8888 50.6721 81.3384 49.7805 81.0228C48.7078 80.6424 47.596 80.5898 47.596 80.5898Z" fill="#474C4F"></path></g><path d="M112.487 80.4531L109.37 70.2216H111.022L113.233 78.0551H113.34L115.525 70.2216H117.203L119.362 78.0285H119.468L121.68 70.2216H123.332L120.214 80.4531H118.669L116.431 72.5929H116.271L114.033 80.4531H112.487ZM127.728 80.4531L124.611 70.2216H126.263L128.474 78.0551H128.581L130.766 70.2216H132.444L134.602 78.0285H134.709L136.921 70.2216H138.573L135.455 80.4531H133.91L131.672 72.5929H131.512L129.274 80.4531H127.728ZM142.969 80.4531L139.851 70.2216H141.503L143.715 78.0551H143.822L146.006 70.2216H147.685L149.843 78.0285H149.95L152.161 70.2216H153.813L150.696 80.4531H149.15L146.912 72.5929H146.752L144.514 80.4531H142.969ZM155.645 80.5597C155.316 80.5597 155.034 80.442 154.799 80.2067C154.564 79.9713 154.446 79.6893 154.446 79.3607C154.446 79.0321 154.564 78.7501 154.799 78.5147C155.034 78.2794 155.316 78.1617 155.645 78.1617C155.974 78.1617 156.256 78.2794 156.491 78.5147C156.726 78.7501 156.844 79.0321 156.844 79.3607C156.844 79.5783 156.789 79.7781 156.678 79.9602C156.571 80.1423 156.427 80.2888 156.245 80.3998C156.067 80.5064 155.867 80.5597 155.645 80.5597ZM166.646 84.29V78.8811H166.513C166.397 79.0676 166.233 79.303 166.02 79.5872C165.807 79.8669 165.502 80.1178 165.107 80.3399C164.712 80.5575 164.186 80.6663 163.529 80.6663C162.676 80.6663 161.923 80.4509 161.27 80.0201C160.618 79.585 160.107 78.9721 159.738 78.1817C159.37 77.3868 159.185 76.4475 159.185 75.364C159.185 74.2893 159.37 73.3568 159.738 72.5663C160.107 71.7758 160.62 71.1652 161.277 70.7345C161.934 70.3037 162.694 70.0883 163.555 70.0883C164.221 70.0883 164.748 70.1994 165.134 70.4214C165.525 70.639 165.822 70.8877 166.027 71.1675C166.235 71.4428 166.397 71.6693 166.513 71.8469H166.699V70.2216H168.218V84.29H166.646ZM163.742 79.2541C164.372 79.2541 164.905 79.0898 165.34 78.7612C165.776 78.4281 166.106 77.9685 166.333 77.3823C166.559 76.7917 166.673 76.11 166.673 75.3373C166.673 74.5735 166.562 73.9052 166.34 73.3323C166.118 72.755 165.789 72.3065 165.354 71.9868C164.919 71.6626 164.381 71.5005 163.742 71.5005C163.076 71.5005 162.521 71.6715 162.076 72.0134C161.637 72.3509 161.306 72.8105 161.084 73.3923C160.866 73.9696 160.758 74.6179 160.758 75.3373C160.758 76.0656 160.869 76.7273 161.091 77.3224C161.317 77.913 161.65 78.3837 162.09 78.7345C162.534 79.0809 163.084 79.2541 163.742 79.2541ZM177.544 76.2699V70.2216H179.116V80.4531H177.544V78.7212H177.437C177.197 79.2408 176.824 79.6826 176.318 80.0468C175.812 80.4065 175.172 80.5863 174.4 80.5863C173.76 80.5863 173.192 80.4465 172.694 80.1667C172.197 79.8825 171.806 79.4562 171.522 78.8878C171.238 78.3149 171.096 77.5933 171.096 76.7229V70.2216H172.668V76.6163C172.668 77.3623 172.876 77.9574 173.294 78.4015C173.716 78.8456 174.253 79.0676 174.906 79.0676C175.297 79.0676 175.694 78.9677 176.098 78.7678C176.507 78.568 176.849 78.2616 177.124 77.8486C177.404 77.4356 177.544 76.9094 177.544 76.2699ZM185.006 80.6929C184.357 80.6929 183.769 80.5708 183.241 80.3266C182.712 80.0779 182.293 79.7204 181.982 79.2541C181.671 78.7834 181.515 78.215 181.515 77.5489C181.515 76.9627 181.631 76.4875 181.862 76.1234C182.093 75.7548 182.401 75.4661 182.788 75.2574C183.174 75.0487 183.6 74.8933 184.067 74.7911C184.537 74.6846 185.01 74.6002 185.485 74.538C186.107 74.4581 186.611 74.3981 186.998 74.3582C187.388 74.3137 187.673 74.2405 187.85 74.1383C188.032 74.0362 188.123 73.8586 188.123 73.6054V73.5522C188.123 72.8949 187.943 72.3842 187.584 72.0201C187.228 71.6559 186.689 71.4739 185.965 71.4739C185.215 71.4739 184.626 71.6382 184.2 71.9668C183.774 72.2954 183.474 72.6462 183.301 73.0193L181.808 72.4864C182.075 71.8647 182.43 71.3806 182.874 71.0342C183.323 70.6834 183.811 70.4392 184.34 70.3015C184.873 70.1594 185.397 70.0883 185.912 70.0883C186.24 70.0883 186.618 70.1283 187.044 70.2082C187.475 70.2837 187.89 70.4414 188.29 70.6812C188.694 70.921 189.029 71.2829 189.296 71.767C189.562 72.251 189.695 72.8994 189.695 73.712V80.4531H188.123V79.0676H188.043C187.937 79.2896 187.759 79.5272 187.51 79.7803C187.262 80.0335 186.931 80.2488 186.518 80.4265C186.105 80.6041 185.601 80.6929 185.006 80.6929ZM185.246 79.2808C185.867 79.2808 186.391 79.1586 186.818 78.9144C187.248 78.6702 187.573 78.3549 187.79 77.9685C188.012 77.5822 188.123 77.1758 188.123 76.7495V75.3107C188.057 75.3906 187.91 75.4639 187.684 75.5305C187.462 75.5927 187.204 75.6482 186.911 75.6971C186.622 75.7415 186.34 75.7814 186.065 75.817C185.794 75.848 185.574 75.8747 185.406 75.8969C184.997 75.9502 184.615 76.0368 184.26 76.1567C183.909 76.2721 183.625 76.4475 183.407 76.6829C183.194 76.9138 183.087 77.2291 183.087 77.6288C183.087 78.175 183.289 78.588 183.694 78.8678C184.102 79.1431 184.619 79.2808 185.246 79.2808ZM194.137 66.8111V80.4531H192.565V66.8111H194.137ZM197.016 84.29V70.2216H198.535V71.8469H198.721C198.837 71.6693 198.997 71.4428 199.201 71.1675C199.41 70.8877 199.707 70.639 200.093 70.4214C200.484 70.1994 201.013 70.0883 201.679 70.0883C202.54 70.0883 203.3 70.3037 203.957 70.7345C204.614 71.1652 205.127 71.7758 205.496 72.5663C205.864 73.3568 206.048 74.2893 206.048 75.364C206.048 76.4475 205.864 77.3868 205.496 78.1817C205.127 78.9721 204.616 79.585 203.964 80.0201C203.311 80.4509 202.558 80.6663 201.705 80.6663C201.048 80.6663 200.522 80.5575 200.127 80.3399C199.731 80.1178 199.427 79.8669 199.214 79.5872C199.001 79.303 198.837 79.0676 198.721 78.8811H198.588V84.29H197.016ZM198.561 75.3373C198.561 76.11 198.675 76.7917 198.901 77.3823C199.128 77.9685 199.458 78.4281 199.894 78.7612C200.329 79.0898 200.862 79.2541 201.492 79.2541C202.149 79.2541 202.698 79.0809 203.138 78.7345C203.582 78.3837 203.915 77.913 204.137 77.3224C204.363 76.7273 204.476 76.0656 204.476 75.3373C204.476 74.6179 204.365 73.9696 204.143 73.3923C203.926 72.8105 203.595 72.3509 203.151 72.0134C202.711 71.6715 202.158 71.5005 201.492 71.5005C200.853 71.5005 200.315 71.6626 199.88 71.9868C199.445 72.3065 199.116 72.755 198.894 73.3323C198.672 73.9052 198.561 74.5735 198.561 75.3373ZM210.019 66.8111V80.4531H208.446V66.8111H210.019ZM215.909 80.6929C215.26 80.6929 214.672 80.5708 214.143 80.3266C213.615 80.0779 213.195 79.7204 212.884 79.2541C212.574 78.7834 212.418 78.215 212.418 77.5489C212.418 76.9627 212.534 76.4875 212.765 76.1234C212.996 75.7548 213.304 75.4661 213.69 75.2574C214.077 75.0487 214.503 74.8933 214.969 74.7911C215.44 74.6846 215.913 74.6002 216.388 74.538C217.01 74.4581 217.514 74.3981 217.9 74.3582C218.291 74.3137 218.575 74.2405 218.753 74.1383C218.935 74.0362 219.026 73.8586 219.026 73.6054V73.5522C219.026 72.8949 218.846 72.3842 218.487 72.0201C218.131 71.6559 217.592 71.4739 216.868 71.4739C216.117 71.4739 215.529 71.6382 215.103 71.9668C214.676 72.2954 214.377 72.6462 214.203 73.0193L212.711 72.4864C212.978 71.8647 213.333 71.3806 213.777 71.0342C214.226 70.6834 214.714 70.4392 215.243 70.3015C215.775 70.1594 216.299 70.0883 216.815 70.0883C217.143 70.0883 217.521 70.1283 217.947 70.2082C218.378 70.2837 218.793 70.4414 219.193 70.6812C219.597 70.921 219.932 71.2829 220.198 71.767C220.465 72.251 220.598 72.8994 220.598 73.712V80.4531H219.026V79.0676H218.946C218.84 79.2896 218.662 79.5272 218.413 79.7803C218.165 80.0335 217.834 80.2488 217.421 80.4265C217.008 80.6041 216.504 80.6929 215.909 80.6929ZM216.148 79.2808C216.77 79.2808 217.294 79.1586 217.72 78.9144C218.151 78.6702 218.475 78.3549 218.693 77.9685C218.915 77.5822 219.026 77.1758 219.026 76.7495V75.3107C218.959 75.3906 218.813 75.4639 218.586 75.5305C218.364 75.5927 218.107 75.6482 217.814 75.6971C217.525 75.7415 217.243 75.7814 216.968 75.817C216.697 75.848 216.477 75.8747 216.308 75.8969C215.9 75.9502 215.518 76.0368 215.163 76.1567C214.812 76.2721 214.528 76.4475 214.31 76.6829C214.097 76.9138 213.99 77.2291 213.99 77.6288C213.99 78.175 214.192 78.588 214.596 78.8678C215.005 79.1431 215.522 79.2808 216.148 79.2808ZM227.624 80.6663C226.665 80.6663 225.839 80.4398 225.146 79.9868C224.453 79.5339 223.92 78.91 223.547 78.1151C223.174 77.3202 222.988 76.412 222.988 75.3906C222.988 74.3515 223.179 73.4345 223.561 72.6396C223.947 71.8402 224.484 71.2163 225.173 70.7678C225.865 70.3148 226.674 70.0883 227.597 70.0883C228.317 70.0883 228.965 70.2216 229.542 70.488C230.12 70.7545 230.593 71.1275 230.961 71.6071C231.33 72.0867 231.559 72.6462 231.647 73.2857H230.075C229.955 72.8194 229.689 72.4064 229.276 72.0467C228.867 71.6826 228.317 71.5005 227.624 71.5005C227.011 71.5005 226.474 71.6604 226.012 71.9801C225.555 72.2954 225.197 72.7417 224.94 73.319C224.686 73.8919 224.56 74.5647 224.56 75.3373C224.56 76.1278 224.684 76.8161 224.933 77.4023C225.186 77.9885 225.541 78.4437 225.999 78.7678C226.461 79.092 227.002 79.2541 227.624 79.2541C228.033 79.2541 228.403 79.1831 228.736 79.041C229.069 78.8989 229.351 78.6946 229.582 78.4281C229.813 78.1617 229.978 77.8419 230.075 77.4689H231.647C231.559 78.0729 231.339 78.6169 230.988 79.1009C230.642 79.5805 230.182 79.9624 229.609 80.2466C229.041 80.5264 228.379 80.6663 227.624 80.6663ZM236.956 80.6929C236.308 80.6929 235.72 80.5708 235.191 80.3266C234.663 80.0779 234.243 79.7204 233.932 79.2541C233.621 78.7834 233.466 78.215 233.466 77.5489C233.466 76.9627 233.581 76.4875 233.812 76.1234C234.043 75.7548 234.352 75.4661 234.738 75.2574C235.124 75.0487 235.551 74.8933 236.017 74.7911C236.488 74.6846 236.961 74.6002 237.436 74.538C238.058 74.4581 238.562 74.3981 238.948 74.3582C239.339 74.3137 239.623 74.2405 239.801 74.1383C239.983 74.0362 240.074 73.8586 240.074 73.6054V73.5522C240.074 72.8949 239.894 72.3842 239.534 72.0201C239.179 71.6559 238.639 71.4739 237.915 71.4739C237.165 71.4739 236.577 71.6382 236.15 71.9668C235.724 72.2954 235.424 72.6462 235.251 73.0193L233.759 72.4864C234.025 71.8647 234.381 71.3806 234.825 71.0342C235.273 70.6834 235.762 70.4392 236.29 70.3015C236.823 70.1594 237.347 70.0883 237.862 70.0883C238.191 70.0883 238.568 70.1283 238.995 70.2082C239.425 70.2837 239.841 70.4414 240.24 70.6812C240.644 70.921 240.98 71.2829 241.246 71.767C241.513 72.251 241.646 72.8994 241.646 73.712V80.4531H240.074V79.0676H239.994C239.887 79.2896 239.71 79.5272 239.461 79.7803C239.212 80.0335 238.881 80.2488 238.468 80.4265C238.055 80.6041 237.551 80.6929 236.956 80.6929ZM237.196 79.2808C237.818 79.2808 238.342 79.1586 238.768 78.9144C239.199 78.6702 239.523 78.3549 239.741 77.9685C239.963 77.5822 240.074 77.1758 240.074 76.7495V75.3107C240.007 75.3906 239.861 75.4639 239.634 75.5305C239.412 75.5927 239.154 75.6482 238.861 75.6971C238.573 75.7415 238.291 75.7814 238.015 75.817C237.745 75.848 237.525 75.8747 237.356 75.8969C236.947 75.9502 236.565 76.0368 236.21 76.1567C235.859 76.2721 235.575 76.4475 235.358 76.6829C235.144 76.9138 235.038 77.2291 235.038 77.6288C235.038 78.175 235.24 78.588 235.644 78.8678C236.053 79.1431 236.57 79.2808 237.196 79.2808ZM244.515 80.4531V70.2216H246.034V71.767H246.14C246.327 71.2607 246.664 70.8499 247.153 70.5346C247.641 70.2194 248.192 70.0617 248.805 70.0617C248.92 70.0617 249.065 70.0639 249.238 70.0684C249.411 70.0728 249.542 70.0795 249.631 70.0883V71.687C249.578 71.6737 249.455 71.6537 249.264 71.6271C249.078 71.596 248.88 71.5804 248.672 71.5804C248.174 71.5804 247.73 71.6848 247.339 71.8935C246.953 72.0978 246.647 72.382 246.42 72.7462C246.198 73.1059 246.087 73.5166 246.087 73.9785V80.4531H244.515ZM251.468 80.5597C251.139 80.5597 250.857 80.442 250.622 80.2067C250.386 79.9713 250.269 79.6893 250.269 79.3607C250.269 79.0321 250.386 78.7501 250.622 78.5147C250.857 78.2794 251.139 78.1617 251.468 78.1617C251.796 78.1617 252.078 78.2794 252.314 78.5147C252.549 78.7501 252.667 79.0321 252.667 79.3607C252.667 79.5783 252.611 79.7781 252.5 79.9602C252.394 80.1423 252.249 80.2888 252.067 80.3998C251.89 80.5064 251.69 80.5597 251.468 80.5597ZM259.644 80.6663C258.685 80.6663 257.859 80.4398 257.166 79.9868C256.474 79.5339 255.941 78.91 255.568 78.1151C255.195 77.3202 255.008 76.412 255.008 75.3906C255.008 74.3515 255.199 73.4345 255.581 72.6396C255.967 71.8402 256.505 71.2163 257.193 70.7678C257.886 70.3148 258.694 70.0883 259.618 70.0883C260.337 70.0883 260.985 70.2216 261.563 70.488C262.14 70.7545 262.613 71.1275 262.981 71.6071C263.35 72.0867 263.579 72.6462 263.668 73.2857H262.096C261.976 72.8194 261.709 72.4064 261.296 72.0467C260.888 71.6826 260.337 71.5005 259.644 71.5005C259.031 71.5005 258.494 71.6604 258.032 71.9801C257.575 72.2954 257.217 72.7417 256.96 73.319C256.707 73.8919 256.58 74.5647 256.58 75.3373C256.58 76.1278 256.704 76.8161 256.953 77.4023C257.206 77.9885 257.561 78.4437 258.019 78.7678C258.481 79.092 259.023 79.2541 259.644 79.2541C260.053 79.2541 260.424 79.1831 260.757 79.041C261.09 78.8989 261.372 78.6946 261.603 78.4281C261.834 78.1617 261.998 77.8419 262.096 77.4689H263.668C263.579 78.0729 263.359 78.6169 263.008 79.1009C262.662 79.5805 262.202 79.9624 261.629 80.2466C261.061 80.5264 260.399 80.6663 259.644 80.6663ZM270.122 80.6663C269.199 80.6663 268.388 80.4465 267.691 80.0068C266.998 79.5672 266.456 78.9521 266.066 78.1617C265.679 77.3712 265.486 76.4475 265.486 75.3906C265.486 74.3249 265.679 73.3945 266.066 72.5996C266.456 71.8047 266.998 71.1874 267.691 70.7478C268.388 70.3082 269.199 70.0883 270.122 70.0883C271.046 70.0883 271.854 70.3082 272.547 70.7478C273.244 71.1874 273.786 71.8047 274.172 72.5996C274.563 73.3945 274.758 74.3249 274.758 75.3906C274.758 76.4475 274.563 77.3712 274.172 78.1617C273.786 78.9521 273.244 79.5672 272.547 80.0068C271.854 80.4465 271.046 80.6663 270.122 80.6663ZM270.122 79.2541C270.824 79.2541 271.401 79.0743 271.854 78.7146C272.307 78.3549 272.642 77.8819 272.86 77.2957C273.078 76.7095 273.186 76.0745 273.186 75.3906C273.186 74.7068 273.078 74.0695 272.86 73.4789C272.642 72.8883 272.307 72.4109 271.854 72.0467C271.401 71.6826 270.824 71.5005 270.122 71.5005C269.421 71.5005 268.843 71.6826 268.39 72.0467C267.937 72.4109 267.602 72.8883 267.384 73.4789C267.167 74.0695 267.058 74.7068 267.058 75.3906C267.058 76.0745 267.167 76.7095 267.384 77.2957C267.602 77.8819 267.937 78.3549 268.39 78.7146C268.843 79.0743 269.421 79.2541 270.122 79.2541ZM277.158 80.4531V70.2216H278.677V71.8203H278.81C279.023 71.274 279.367 70.8499 279.843 70.548C280.318 70.2416 280.888 70.0883 281.554 70.0883C282.229 70.0883 282.791 70.2416 283.24 70.548C283.693 70.8499 284.046 71.274 284.299 71.8203H284.405C284.667 71.2918 285.06 70.8721 285.584 70.5613C286.108 70.246 286.737 70.0883 287.47 70.0883C288.384 70.0883 289.133 70.3748 289.714 70.9476C290.296 71.5161 290.587 72.402 290.587 73.6054V80.4531H289.015V73.6054C289.015 72.8505 288.808 72.311 288.395 71.9868C287.982 71.6626 287.496 71.5005 286.937 71.5005C286.217 71.5005 285.66 71.7181 285.265 72.1533C284.87 72.5841 284.672 73.1303 284.672 73.792V80.4531H283.073V73.4456C283.073 72.8638 282.884 72.3953 282.507 72.0401C282.13 71.6804 281.643 71.5005 281.048 71.5005C280.64 71.5005 280.258 71.6093 279.902 71.8269C279.552 72.0445 279.267 72.3465 279.05 72.7328C278.837 73.1147 278.73 73.5566 278.73 74.0584V80.4531H277.158Z" fill="white"></path><defs><clipPath id="clip0_1_93"><rect width="15.6558" height="15.6558" fill="white" transform="translate(39.3984 80.0859)"></rect></clipPath></defs></svg>